<svg xmlns="http://www.w3.org/2000/svg" viewBox="0 0 860 336" width="860" height="336">
<style>
 text{font-family:ui-monospace,SFMono-Regular,Menlo,Consolas,'DejaVu Sans Mono','Liberation Mono',monospace} .h{font-size:15px;font-weight:700} .s{font-size:10.5px;fill:#8b949e} .k{font-size:11px;fill:#c9d1d9}
 .t{font-size:13px;font-weight:600;fill:#c9d1d9} .lane{font-size:10.5px;font-weight:700;fill:#6e7681;letter-spacing:1.5px} .b{font-size:10px;fill:#7ee787;font-weight:600}
 .f{opacity:0;animation:f .6s ease-out forwards} @keyframes f{from{opacity:0;transform:translateY(8px)}to{opacity:1;transform:none}}
 .flow{stroke:#8b949e;stroke-width:1.6;stroke-dasharray:5 4;animation:d 1s linear infinite} @keyframes d{to{stroke-dashoffset:-9}}
</style>
<rect width="860" height="336" rx="12" fill="#0d1117" stroke="#30363d"/>
<text x="24" y="32" class="t">$ ./openstore --architecture</text>
<text x="836" y="32" text-anchor="end" class="s">end-to-end · deployed on Vercel</text>
<text x="24" y="56" class="lane">DATA PIPELINE</text>
<g class="f" style="animation-delay:0.20s"><rect x="24.0" y="68" width="130" height="74" rx="10" fill="#79c0ff" fill-opacity=".10" stroke="#79c0ff" stroke-width="1.5"/><text x="89.0" y="92" text-anchor="middle" class="h" fill="#79c0ff">Data lake</text><text x="89.0" y="111" text-anchor="middle" class="s">CSV · S3 API</text><text x="89.0" y="129" text-anchor="middle" class="k">SeaweedFS</text></g>
<g class="f" style="animation-delay:0.40s"><line class="flow" x1="160.0" x2="184.5" y1="105.0" y2="105.0"/><path d="M180.5 100.0 L188.5 105.0 L180.5 110.0" fill="none" stroke="#8b949e" stroke-width="1.6"/></g>
<g class="f" style="animation-delay:0.50s"><rect x="194.5" y="68" width="130" height="74" rx="10" fill="#cd7f32" fill-opacity=".10" stroke="#cd7f32" stroke-width="1.5"/><text x="259.5" y="92" text-anchor="middle" class="h" fill="#cd7f32">raw</text><text x="259.5" y="111" text-anchor="middle" class="s">untouched copy</text><text x="259.5" y="129" text-anchor="middle" class="k">PostgreSQL</text></g>
<g class="f" style="animation-delay:0.70s"><line class="flow" x1="330.5" x2="355.0" y1="105.0" y2="105.0"/><path d="M351.0 100.0 L359.0 105.0 L351.0 110.0" fill="none" stroke="#8b949e" stroke-width="1.6"/></g>
<g class="f" style="animation-delay:0.80s"><rect x="365.0" y="68" width="130" height="74" rx="10" fill="#c0c0c0" fill-opacity=".10" stroke="#c0c0c0" stroke-width="1.5"/><text x="430.0" y="92" text-anchor="middle" class="h" fill="#c0c0c0">staging</text><text x="430.0" y="111" text-anchor="middle" class="s">typed + renamed</text><text x="430.0" y="129" text-anchor="middle" class="k">casts · cleanup</text></g>
<g class="f" style="animation-delay:1.00s"><line class="flow" x1="501.0" x2="525.5" y1="105.0" y2="105.0"/><path d="M521.5 100.0 L529.5 105.0 L521.5 110.0" fill="none" stroke="#8b949e" stroke-width="1.6"/></g>
<g class="f" style="animation-delay:1.10s"><rect x="535.5" y="68" width="130" height="74" rx="10" fill="#f2cc60" fill-opacity=".10" stroke="#f2cc60" stroke-width="1.5"/><text x="600.5" y="92" text-anchor="middle" class="h" fill="#f2cc60">core</text><text x="600.5" y="111" text-anchor="middle" class="s">dim + fact tables</text><text x="600.5" y="129" text-anchor="middle" class="k">dim_customers · fct_orders</text></g>
<g class="f" style="animation-delay:1.30s"><line class="flow" x1="671.5" x2="696.0" y1="105.0" y2="105.0"/><path d="M692.0 100.0 L700.0 105.0 L692.0 110.0" fill="none" stroke="#8b949e" stroke-width="1.6"/></g>
<g class="f" style="animation-delay:1.40s"><rect x="706.0" y="68" width="130" height="74" rx="10" fill="#7ee787" fill-opacity=".10" stroke="#7ee787" stroke-width="1.5"/><text x="771.0" y="92" text-anchor="middle" class="h" fill="#7ee787">analytics</text><text x="771.0" y="111" text-anchor="middle" class="s">business-ready views</text><text x="771.0" y="129" text-anchor="middle" class="k">3 curated views</text></g>
<text x="24" y="204" class="lane">AI QUERY PATH</text>
<g class="f" style="animation-delay:1.90s"><rect x="24.0" y="216" width="130" height="74" rx="10" fill="#79c0ff" fill-opacity=".10" stroke="#79c0ff" stroke-width="1.5"/><text x="89.0" y="240" text-anchor="middle" class="h" fill="#79c0ff">Question</text><text x="89.0" y="259" text-anchor="middle" class="s">plain English</text><text x="89.0" y="277" text-anchor="middle" class="k">Next.js UI</text></g>
<g class="f" style="animation-delay:2.10s"><line class="flow" x1="160.0" x2="184.5" y1="253.0" y2="253.0"/><path d="M180.5 248.0 L188.5 253.0 L180.5 258.0" fill="none" stroke="#8b949e" stroke-width="1.6"/></g>
<g class="f" style="animation-delay:2.20s"><rect x="194.5" y="216" width="130" height="74" rx="10" fill="#d2a8ff" fill-opacity=".10" stroke="#d2a8ff" stroke-width="1.5"/><text x="259.5" y="240" text-anchor="middle" class="h" fill="#d2a8ff">LLM</text><text x="259.5" y="259" text-anchor="middle" class="s">writes the SQL</text><text x="259.5" y="277" text-anchor="middle" class="k">Gemini · OpenRouter</text></g>
<g class="f" style="animation-delay:2.40s"><line class="flow" x1="330.5" x2="355.0" y1="253.0" y2="253.0"/><path d="M351.0 248.0 L359.0 253.0 L351.0 258.0" fill="none" stroke="#8b949e" stroke-width="1.6"/></g>
<g class="f" style="animation-delay:2.50s"><rect x="365.0" y="216" width="130" height="74" rx="10" fill="#ff7b72" fill-opacity=".10" stroke="#ff7b72" stroke-width="1.5"/><text x="430.0" y="240" text-anchor="middle" class="h" fill="#ff7b72">Guardrails</text><text x="430.0" y="259" text-anchor="middle" class="s">SELECT-only · LIMIT</text><text x="430.0" y="277" text-anchor="middle" class="k">blocks DDL / DML</text></g>
<g class="f" style="animation-delay:2.70s"><line class="flow" x1="501.0" x2="525.5" y1="253.0" y2="253.0"/><path d="M521.5 248.0 L529.5 253.0 L521.5 258.0" fill="none" stroke="#8b949e" stroke-width="1.6"/></g>
<g class="f" style="animation-delay:2.80s"><rect x="535.5" y="216" width="130" height="74" rx="10" fill="#7ee787" fill-opacity=".10" stroke="#7ee787" stroke-width="1.5"/><text x="600.5" y="240" text-anchor="middle" class="h" fill="#7ee787">PostgreSQL</text><text x="600.5" y="259" text-anchor="middle" class="s">runs validated SQL</text><text x="600.5" y="277" text-anchor="middle" class="k">analytics views</text></g>
<g class="f" style="animation-delay:3.00s"><line class="flow" x1="671.5" x2="696.0" y1="253.0" y2="253.0"/><path d="M692.0 248.0 L700.0 253.0 L692.0 258.0" fill="none" stroke="#8b949e" stroke-width="1.6"/></g>
<g class="f" style="animation-delay:3.10s"><rect x="706.0" y="216" width="130" height="74" rx="10" fill="#f2cc60" fill-opacity=".10" stroke="#f2cc60" stroke-width="1.5"/><text x="771.0" y="240" text-anchor="middle" class="h" fill="#f2cc60">Answer</text><text x="771.0" y="259" text-anchor="middle" class="s">SQL + table + chart</text><text x="771.0" y="277" text-anchor="middle" class="k">FastAPI · Recharts</text></g>
<g class="f" style="animation-delay:1.0s"><rect x="374.0" y="58" width="112" height="19" rx="9.5" fill="#0d1117" stroke="#7ee787"/><text x="430.0" y="71" text-anchor="middle" class="b">✓ Pandera checks</text></g>
<g class="f" style="animation-delay:2.4s"><path class="flow" d="M771.0 142 V179.0 H600.5 V214" fill="none"/><path d="M595.5 207 L600.5 214 L605.5 207" fill="none" stroke="#8b949e" stroke-width="1.6"/><text x="685.75" y="173.0" text-anchor="middle" class="s">AI reads curated views only</text></g>
</svg>